<svg width="77" height="74" viewBox="0 0 77 74" fill="none" xmlns="http://www.w3.org/2000/svg">
<path d="M53.8532 15.5436C53.8354 18.3781 51.9772 20.6084 49.3109 21.0194C48.8532 21.09 48.3878 21.1085 47.9322 21.1902C47.7494 21.223 47.5001 21.3139 47.4265 21.461C47.2498 21.8141 47.1009 22.2071 47.0484 22.6007C46.9823 23.0954 47.0085 23.6071 47.0206 24.1108C47.3222 36.7547 47.6248 49.3987 47.9383 62.0423C47.9564 62.7727 47.7775 63.3967 47.3249 63.9329C44.9954 66.6926 42.6643 69.4508 40.3314 72.2073C40.1882 72.3765 40.0253 72.5269 39.836 72.7228C39.5537 72.4821 39.2587 72.2713 39.0089 72.0114C36.416 69.3138 33.8319 66.6069 31.2406 63.9077C31.0054 63.6627 30.9838 63.3599 30.976 63.0534C30.9209 60.8988 30.8705 58.744 30.8243 56.5892C30.7813 54.5833 30.7584 52.5768 30.7043 50.5712C30.4716 41.9516 30.2314 33.3322 29.991 24.7128C29.975 24.1399 29.9373 23.5676 29.9056 22.9952C29.8738 22.4213 29.5788 22.0052 29.15 21.7035C29.027 21.617 28.8203 21.6216 28.6602 21.6453C25.5687 22.1033 22.6928 19.3517 22.8158 16.0456C22.9184 13.2884 24.7894 11.072 27.3096 10.7221C29.7965 10.3768 32.2103 12.0032 32.9688 14.5959C33.1645 15.2651 33.2696 15.9875 33.2862 16.6885C33.5068 25.9851 33.6982 35.2824 33.9108 44.5793C33.9793 47.5712 34.0991 50.5619 34.1736 53.5536C34.2008 54.6478 34.4136 55.6753 34.8484 56.6728C35.5088 58.1883 36.1245 59.7259 36.7493 61.2586C36.8901 61.6039 36.9821 61.9712 37.1117 62.3221C37.2151 62.6025 37.3421 62.8724 37.7456 62.8755C37.7663 62.653 37.8139 62.4313 37.8025 62.2129C37.7564 61.3318 37.6612 60.4524 37.6391 59.571C37.2445 43.8324 36.8569 28.0937 36.4771 12.3548C36.4698 12.0532 36.3756 11.9276 36.1229 11.812C33.7838 10.7409 32.5393 8.04835 33.1484 5.41207C33.7445 2.83229 36.0756 1.06179 38.5833 1.28422C40.8742 1.48743 42.8469 3.35618 43.2433 5.69868C43.6794 8.27582 42.5245 10.7156 40.3451 11.7611C40.0196 11.9172 39.9112 12.1013 39.9162 12.4723C39.9577 15.5104 39.9441 18.5496 40.0171 21.5868C40.3339 34.7693 40.6748 47.9512 41.0038 61.1334C41.0138 61.5329 41.0006 61.9339 40.9785 62.333C40.9648 62.5815 40.998 62.7883 41.2804 62.9437C41.4161 62.6981 41.5859 62.4608 41.6881 62.1941C42.1619 60.9574 42.6173 59.7126 43.0787 58.4705C43.2602 57.982 43.4159 57.4808 43.6253 57.0064C44.2779 55.528 44.3908 53.9507 44.4232 52.3513C44.5674 45.2287 44.2697 38.1129 44.0752 30.9956C43.9483 26.3535 43.8035 21.7118 43.6614 17.0701C43.6534 16.8088 43.5967 16.549 43.562 16.2886C43.1469 13.175 45.1923 10.5957 47.7532 10.1376C50.6351 9.62221 53.2616 11.5867 53.7664 14.5881C53.8174 14.8913 53.8249 15.2026 53.8532 15.5436ZM39.4517 4.23516C39.4793 4.21736 39.5092 4.2027 39.534 4.18129C39.877 3.88496 39.9671 3.4942 39.7806 3.11736C39.6094 2.77156 39.2399 2.61004 38.8702 2.71939C38.526 2.8212 38.3096 3.16099 38.3379 3.55544C38.369 3.98863 38.6256 4.25423 39.069 4.32489C39.1201 4.33305 39.1645 4.39039 39.1672 4.43506C38.892 4.66379 38.8612 4.99895 38.8355 5.33024C38.8126 5.62553 38.6797 5.79289 38.4005 5.82761C38.1977 5.85285 37.9891 5.85878 37.7941 5.91571C37.2441 6.07624 36.9752 5.90784 36.8853 5.30837C36.8302 4.94109 36.7592 4.58777 36.3569 4.3934C36.9631 4.33199 37.2553 4.08447 37.299 3.64001C37.3354 3.271 37.1082 2.89165 36.783 2.77828C36.4348 2.6569 36.0257 2.81835 35.8591 3.14292C35.6539 3.54265 35.7687 3.96129 36.1854 4.33307C35.5685 4.43781 35.4837 4.5252 35.361 5.2026C35.2798 5.65125 35.1959 6.09966 35.1304 6.55106C35.1099 6.69193 35.13 6.84574 35.1589 6.98738C35.2142 7.25835 35.3324 7.52224 35.3477 7.79369C35.3862 8.47929 35.3797 9.16752 35.3962 9.85457C35.4021 10.101 35.4761 10.3099 35.7362 10.3674C36.0271 10.4318 36.2171 10.2493 36.2182 9.85513C36.2199 9.20255 36.1955 8.54975 36.1786 7.89713C36.1713 7.61784 36.1158 7.33861 36.4035 7.14316C36.488 7.08571 36.5024 6.89997 36.5336 6.76884C36.5687 6.62129 36.5864 6.469 36.617 6.28745C36.7242 6.3588 36.7903 6.42913 36.8681 6.45004C37.2282 6.54691 37.6049 6.73765 37.9503 6.69028C38.3618 6.63385 38.7474 6.36894 39.1516 6.19106C39.2136 6.43997 39.2526 6.68839 39.3385 6.91702C39.4277 7.15431 39.575 7.34111 39.8963 7.16334C39.9101 7.1626 39.9239 7.16186 39.9226 7.21926C39.7373 7.26874 39.5521 7.31822 39.3475 7.37284C39.3621 7.94965 39.3771 8.54677 39.3922 9.1422C40.1607 9.12282 40.9071 9.104 41.6452 9.08538C41.6298 8.47824 41.6152 7.89647 41.5995 7.27549C41.3193 7.29743 41.0264 7.34852 40.8642 7.02937C40.7996 6.90211 40.7214 6.77711 40.6844 6.64046C40.5206 6.03619 40.3767 5.4259 40.2117 4.82202C40.0831 4.35119 39.927 4.25013 39.4517 4.23516ZM49.073 11.7468C48.7702 11.7347 48.4674 11.7227 48.1571 11.7104C48.1527 11.8421 48.1378 11.9123 48.1502 11.9766C48.2265 12.3715 48.1049 12.5659 47.7182 12.7076C47.0955 12.9358 46.7686 13.5592 46.7891 14.2425C46.8107 14.961 47.164 15.411 47.787 15.6458C47.8881 15.6839 47.9952 15.711 48.0876 15.7661C48.1508 15.8038 48.2353 15.8788 48.2384 15.941C48.2627 16.4256 48.2695 16.9111 48.2842 17.4912C47.8799 17.2505 47.5477 17.0527 47.189 16.8391C47.0264 17.0584 46.8486 17.2981 46.6418 17.5768C46.9139 17.7519 47.1587 17.939 47.4266 18.074C47.7044 18.2139 48.0045 18.3034 48.325 18.4266C48.3312 18.672 48.3377 18.9294 48.3439 19.178C48.6699 19.1698 48.9653 19.1623 49.2797 19.1544C49.2731 18.8934 49.2671 18.6563 49.2613 18.4256C50.4128 18.0434 50.8268 17.598 50.8404 16.7511C50.8596 15.5591 50.044 15.2516 49.1809 14.9969C49.168 14.4839 49.1554 13.9849 49.1411 13.4206C49.4801 13.5949 49.7847 13.7514 50.1115 13.9195C50.2626 13.6805 50.4212 13.4298 50.6308 13.0985C50.0984 12.8621 49.6121 12.6461 49.1028 12.42C49.0983 12.2421 49.0929 12.0251 49.073 11.7468ZM28.8178 16.9256C28.8033 16.352 28.7889 15.7784 28.7744 15.2048C28.8115 15.1915 28.8485 15.1782 28.8856 15.1648C29.0392 15.3654 29.1929 15.566 29.3465 15.7665C29.3778 15.7498 29.409 15.733 29.4403 15.7163C29.4265 15.6246 29.426 15.5278 29.3967 15.442C29.2646 15.0556 29.1389 14.6656 28.9845 14.2891C28.5137 13.1413 28.809 13.3967 27.6755 13.3833C27.408 13.3801 27.2474 13.4892 27.2276 13.7481C27.1649 14.5667 27.1238 15.3874 27.0855 16.2079C27.0823 16.2746 27.1635 16.346 27.2055 16.4153C27.2647 16.3463 27.3719 16.2794 27.3744 16.2079C27.3842 15.9342 27.3544 15.659 27.3521 15.3844C27.3512 15.2765 27.3838 15.1684 27.4011 15.0605C27.4345 15.0612 27.4679 15.0619 27.5012 15.0626C27.5189 15.165 27.5484 15.267 27.5523 15.3699C27.5682 15.7936 27.5697 16.218 27.5935 16.6411C27.5979 16.7206 27.6796 16.7954 27.7257 16.8724C27.774 16.7881 27.8619 16.7048 27.8636 16.6193C27.8705 16.2761 27.8439 15.9321 27.8444 15.5885C27.8445 15.456 27.8837 15.3237 27.905 15.1913C27.9382 15.1934 27.9713 15.1956 28.0044 15.1977C28.0184 15.326 28.0412 15.4541 28.045 15.5827C28.0575 16.0065 28.0532 16.4312 28.0791 16.854C28.0849 16.9497 28.1862 17.0391 28.2436 17.1314C28.2889 17.0386 28.3709 16.9467 28.3728 16.8527C28.3801 16.4979 28.3586 16.1425 28.3537 15.7873C28.3514 15.6259 28.3626 15.4643 28.3677 15.3028C28.4022 15.2989 28.4367 15.295 28.4713 15.2911C28.4961 15.3977 28.5377 15.5035 28.5427 15.6111C28.5598 15.9773 28.5623 16.3443 28.574 16.7108C28.5782 16.8455 28.559 17.0114 28.8178 16.9256ZM29.0411 16.9497C29.0061 17.0131 28.9711 17.0765 28.9381 17.136C29.1005 17.2283 29.2427 17.3092 29.385 17.3901C29.3669 17.4312 29.3488 17.4722 29.3307 17.5133C29.0728 17.4235 28.815 17.3336 28.5404 17.2379C28.5158 17.3324 28.4919 17.4245 28.449 17.5895C29.0971 17.7617 29.7185 17.928 30.3406 18.0914C30.6598 18.1752 30.8828 18.1039 30.9557 17.7093C30.9944 17.5002 31.1236 17.3102 31.1614 17.101C31.1859 16.9659 31.1669 16.7578 31.0849 16.675C30.6037 16.1897 30.0983 15.7316 29.5453 15.212C29.6139 15.5291 29.6643 15.7622 29.729 16.0616C29.4576 15.9573 29.25 15.8775 29.0416 15.7975C28.8703 16.2642 29.4889 16.0682 29.4758 16.4483C29.3279 16.4123 29.194 16.3798 29.0601 16.3472C29.0369 16.3799 29.0137 16.4126 28.9905 16.4453C29.1342 16.5998 29.2779 16.7543 29.4877 16.9798C29.2898 16.9494 29.1899 16.9341 29.0411 16.9497ZM25.7782 16.2864C25.6134 16.4663 25.4344 16.6344 25.2904 16.8315C25.2249 16.9212 25.1792 17.0857 25.2106 17.1862C25.3012 17.477 25.4207 17.7613 25.5606 18.0296C25.6107 18.1258 25.7496 18.2238 25.8505 18.2271C26.3552 18.2437 27.784 17.7059 28.2011 17.3691C27.7766 16.977 27.4524 17.6567 26.9431 17.4884C27.2169 17.3273 27.412 17.2126 27.6071 17.0978C27.6021 17.0633 27.5971 17.0287 27.5921 16.9941C27.3808 16.9858 27.1694 16.9775 26.9581 16.9692C26.9571 16.9461 26.9561 16.923 26.9552 16.8999C27.1005 16.8138 27.2458 16.7277 27.4658 16.5973C27.2096 16.5422 27.0471 16.5072 26.8781 16.4709C26.8744 16.3228 26.8713 16.2003 26.8685 16.0888C26.7698 16.0821 26.685 16.0763 26.5831 16.0694C26.7002 15.8077 26.7987 15.5876 26.8972 15.3676C26.8584 15.3377 26.8196 15.3078 26.7808 15.278C26.4575 15.6027 26.1341 15.9275 25.7782 16.2864ZM28.24 12.8116C28.379 12.7994 28.5195 12.7969 28.6567 12.773C28.9011 12.7304 28.9079 12.5284 28.8995 12.3259C28.8912 12.1244 28.8331 11.9593 28.6043 11.9611C28.1637 11.9647 27.723 11.9692 27.2826 11.9808C27.0101 11.9879 26.9597 12.1749 26.9623 12.4255C26.9651 12.6828 27.0714 12.8133 27.307 12.8172C27.5973 12.8219 27.8876 12.815 28.24 12.8116ZM24.9622 18.052C24.8565 17.8024 24.7418 17.5566 24.6475 17.3022C24.5444 17.0243 24.3763 16.9838 24.1354 17.0901C23.8882 17.1993 23.8126 17.3655 23.9288 17.6313C24.0915 18.0037 24.2555 18.3761 24.4008 18.7562C24.5091 19.0397 24.6726 19.1095 24.9329 18.9955C25.2127 18.8728 25.2249 18.6668 25.1162 18.4118C25.0719 18.3079 25.0266 18.2045 24.9622 18.052ZM31.2786 18.4895C31.3095 18.7941 31.5501 18.8453 31.7495 18.8451C31.8565 18.8451 32.0057 18.6778 32.0612 18.5493C32.226 18.1681 32.3514 17.7677 32.4965 17.3767C32.598 17.1034 32.469 16.9798 32.246 16.8894C32.0142 16.7953 31.8485 16.8369 31.7571 17.0952C31.5992 17.542 31.4423 17.9893 31.2786 18.4895ZM39.9014 9.25371C39.8417 9.31179 39.7338 9.36751 39.7314 9.4284C39.7242 9.6062 39.7448 9.78937 39.7811 9.96429C39.8264 10.1825 39.9843 10.3221 40.1789 10.2535C40.3234 10.2026 40.4931 10.0532 40.5376 9.90788C40.5961 9.71713 40.5426 9.48723 40.5363 9.23789C40.3391 9.24286 40.1491 9.24765 39.9014 9.25371Z" fill="white" fill-opacity="0.9"/>
<path d="M65.0814 29.0762C66.0682 29.897 67.0403 30.6981 68.0051 31.509C68.557 31.9729 69.128 32.1095 69.8396 31.9218C72.6667 31.176 75.6137 33.3095 76.0603 36.378C76.5725 39.897 74.0716 42.9009 70.7269 42.7809C70.5336 42.774 70.3322 42.7717 70.15 42.7127C69.7851 42.5944 69.491 42.7186 69.2263 42.9595C68.9979 43.1675 68.777 43.3868 68.5691 43.6177C66.7901 45.5929 65.0095 47.5665 63.2395 49.5508C59.6024 53.6283 55.9721 57.7127 52.3369 61.7921C52.1112 62.0454 51.8673 62.2804 51.6319 62.5239C51.6018 62.5106 51.5717 62.4974 51.5416 62.4842C51.5384 62.3549 51.5351 62.2256 51.5318 62.0963C51.2513 51.0928 50.9707 40.0892 50.6901 29.0856C50.6866 28.9481 50.7004 28.8071 50.6767 28.6736C50.5218 27.801 50.8392 27.1245 51.3975 26.5134C52.8897 24.8801 54.3669 23.2311 55.8466 21.5848C56.0471 21.3618 56.2279 21.1187 56.4487 20.8469C56.7588 21.1321 57.0298 21.3689 57.2879 21.6208C58.8468 23.1426 60.3933 24.6791 61.963 26.1881C62.9797 27.1654 64.029 28.1044 65.0814 29.0762ZM55.1785 50.5125C55.8688 51.1784 56.5403 51.2504 57.3221 50.7186C57.5371 50.5724 57.7402 50.3943 57.9164 50.198C59.952 47.9298 61.9838 45.6576 64.0111 43.3811C64.7508 42.5505 65.4681 41.6973 66.2116 40.8707C66.5378 40.5079 66.6117 40.1941 66.3782 39.6998C65.7092 38.2831 65.6971 36.7901 66.2415 35.341C66.4821 34.7005 66.4086 34.2514 65.9683 33.8069C65.8198 33.6568 65.6856 33.4906 65.537 33.3406C64.2688 32.0604 63.0099 30.7694 61.7261 29.5071C60.4743 28.2762 59.2122 27.056 57.9233 25.8696C57.3084 25.3037 57.3818 25.2029 56.6782 25.8936C55.9799 26.5793 55.395 27.3973 54.7736 28.1693C54.2788 28.7839 54.1279 29.5075 54.172 30.3125C54.2296 31.3645 54.2617 32.4199 54.257 33.4734C54.2336 38.7022 54.4612 43.9233 54.6986 49.1443C54.7207 49.6311 54.8234 50.0978 55.1785 50.5125ZM68.5141 38.5209C68.92 37.9325 69.3259 37.3441 69.7367 36.7484C70.1991 36.9107 70.6496 37.0576 71.0916 37.2297C71.2716 37.2997 71.3694 37.2794 71.4916 37.1073C71.983 36.4146 72.4946 35.7383 73.0034 35.0495C73.1886 35.1641 73.3587 35.2694 73.5481 35.3867C73.6068 34.7717 73.661 34.2027 73.7195 33.5895C73.1667 33.8393 72.6681 34.0647 72.073 34.3337C72.2761 34.4742 72.4201 34.5739 72.5768 34.6822C72.1445 35.246 71.7449 35.7541 71.3605 36.275C71.2215 36.4633 71.0813 36.5152 70.8666 36.4344C70.4248 36.268 69.9763 36.122 69.5253 35.9659C68.805 37.0224 68.1002 38.0562 67.3771 39.1167C67.5466 39.2581 67.6834 39.3723 67.8364 39.4999C68.0674 39.165 68.2763 38.8621 68.5141 38.5209ZM73.2488 38.2853C73.2337 37.6829 73.2185 37.0805 73.2033 36.4809C72.9478 36.4873 72.7196 36.4931 72.5118 36.4983C72.5417 37.6836 72.571 38.8429 72.6007 40.0206C72.8367 40.0147 73.047 40.0094 73.292 40.0032C73.2779 39.445 73.2642 38.8995 73.2488 38.2853ZM70.4364 39.3857C70.4189 38.6897 70.4013 37.9937 70.3836 37.2903C70.1239 37.2968 69.883 37.3029 69.6291 37.3093C69.6526 38.2408 69.6755 39.1492 69.6986 40.0644C69.9521 40.0702 70.1858 40.0756 70.4539 40.0817C70.4483 39.8585 70.4432 39.6558 70.4364 39.3857ZM71.881 39.2128C71.8689 38.7354 71.8569 38.2579 71.8447 37.7725C71.5741 37.7794 71.3349 37.7854 71.0865 37.7917C71.1056 38.5495 71.1242 39.2846 71.1432 40.0392C71.4028 40.0326 71.6422 40.0266 71.9013 40.0201C71.8947 39.7577 71.8887 39.5191 71.881 39.2128ZM68.3734 39.455C68.3788 39.669 68.3842 39.8831 68.39 40.1154C68.6528 40.1088 68.8939 40.1027 69.1445 40.0964C69.136 39.7589 69.1279 39.4366 69.1194 39.1011C68.8679 39.1075 68.6348 39.1134 68.3802 39.1198C68.3773 39.2178 68.3748 39.3048 68.3734 39.455Z" fill="white" fill-opacity="0.9"/>
<path d="M14.5197 32.0142C13.5788 33.0551 12.6531 34.0777 11.7293 35.1024C11.6028 35.2428 11.4871 35.3941 11.3649 35.5389C11.1334 35.8131 11.0813 36.0564 11.2365 36.451C12.0568 38.5365 11.8214 40.5133 10.4384 42.2299C9.06413 43.9358 7.26661 44.5266 5.22176 43.9569C3.17725 43.3873 1.88576 41.9319 1.4581 39.7274C0.657501 35.6005 4.30674 32.1398 8.07701 33.4207C8.30614 33.4985 8.46863 33.4679 8.62934 33.305C9.21334 32.7129 9.8259 32.1493 10.3761 31.5236C12.8392 28.7227 15.2808 25.9005 17.7388 23.0945C18.318 22.4333 18.9338 21.8085 19.5263 21.1602C19.6868 20.9845 19.8226 20.9748 19.9908 21.1454C20.1935 21.3511 20.4164 21.5343 20.6188 21.7403C23.1846 24.3527 25.7466 26.9694 28.314 29.58C28.8341 30.1089 28.8525 30.3796 28.3602 30.9267C27.6246 31.7443 26.72 31.9458 25.7378 31.5011C24.8952 31.1196 24.2469 30.4637 23.6087 29.7899C23.4024 29.5722 23.1533 29.4004 22.9237 29.2076C22.8932 29.2305 22.8626 29.2533 22.832 29.2762C23.0496 39.2415 23.2672 49.2067 23.4864 59.2498C23.3603 59.1526 23.2636 59.0956 23.1872 59.0165C22.344 58.1435 21.5003 57.271 20.6649 56.3896C20.3317 56.0381 20.2358 55.5875 20.2211 55.1001C20.088 50.7105 19.9526 46.3209 19.8103 41.9315C19.6517 37.0379 19.4853 32.1445 19.3224 27.251C19.3193 27.1597 19.3177 27.0684 19.3132 26.892C19.1135 27.0156 18.9324 27.0864 18.8034 27.2159C18.5144 27.5059 18.2515 27.8251 17.9778 28.1323C16.8304 29.4205 15.6829 30.7086 14.5197 32.0142ZM4.91067 36.0687C4.84265 36.1246 4.77326 36.1787 4.70682 36.2366C3.72689 37.0912 3.35481 38.4998 3.7727 39.7707C4.20245 41.0777 5.29253 41.9242 6.58619 41.9555C7.849 41.9861 9.01895 41.1768 9.4644 39.9304C9.77882 39.0507 9.75488 38.1738 9.35406 37.2986C9.20028 37.3981 9.07585 37.4787 8.95629 37.5561C9.5976 39.2408 8.80802 40.5829 7.84256 41.1328C6.75575 41.7519 5.38787 41.4349 4.61994 40.3839C3.8559 39.3382 3.91843 37.8549 4.76467 36.8866C5.20039 36.388 5.74114 36.1043 6.37135 36.0294C7.20453 35.9304 7.90666 36.256 8.50761 36.8681C8.63651 36.7504 8.74625 36.6502 8.8558 36.5502C7.90315 35.3811 6.24663 35.1766 4.91067 36.0687ZM8.37996 39.6412C8.63746 39.0648 8.64108 38.4898 8.393 37.879C8.22504 38.0456 7.95053 38.0282 8.04708 38.3916C8.26155 39.1989 7.77884 40.0056 6.99284 40.2313C6.25331 40.4436 5.48202 39.9723 5.246 39.164C5.01769 38.382 5.43282 37.5287 6.17091 37.2647C6.72123 37.0679 7.20643 37.2209 7.64691 37.5998C7.71595 37.5433 7.77564 37.4957 7.83398 37.4463C7.88994 37.399 7.94451 37.3497 8.00059 37.3006C7.40428 36.6196 6.44276 36.4771 5.67821 36.9386C4.89159 37.4134 4.51447 38.4148 4.79225 39.3296C5.04026 40.1464 5.57421 40.6446 6.36924 40.7618C7.25072 40.8917 7.91604 40.5042 8.37996 39.6412ZM7.43752 38.0245C7.31351 38.1316 7.18951 38.2386 7.07125 38.3407C6.70551 38.1051 6.469 38.0983 6.26654 38.3234C6.08425 38.5261 6.03646 38.7653 6.17731 39.0143C6.31391 39.2558 6.52023 39.359 6.78344 39.2794C7.08673 39.1878 7.1831 38.976 7.16818 38.4509C7.83205 38.0404 8.50275 37.6328 9.16586 37.2117C9.40241 37.0615 9.62732 36.9298 9.91347 37.0577C9.96115 37.0791 10.0445 37.0605 10.0903 37.0274C10.3811 36.8173 10.666 36.5979 11.0515 36.3071C10.3415 36.2737 10.1958 35.8526 10.2217 35.2746C9.85899 35.6518 9.23434 35.7011 9.21827 36.3917C9.21643 36.4708 9.11541 36.559 9.04398 36.6219C8.52236 37.0816 7.99654 37.5358 7.43752 38.0245Z" fill="white" fill-opacity="0.9"/>
<path d="M39.8759 7.16141C39.901 7.0909 39.9468 7.02158 40.0159 6.96705C40.0416 6.999 40.044 7.01615 40.0464 7.0333C40.0209 7.07156 39.9955 7.10982 39.9539 7.15424C39.9241 7.16113 39.9104 7.16187 39.8759 7.16141Z" fill="white" fill-opacity="0.9"/>
<path d="M40.02 6.74564C39.8844 6.34398 39.7489 5.94232 39.6133 5.54066C39.6494 5.52684 39.6855 5.51302 39.7216 5.4992C39.8471 5.89577 39.9726 6.29235 40.0775 6.71692C40.0445 6.74517 40.0323 6.74541 40.02 6.74564Z" fill="white" fill-opacity="0.9"/>
<path d="M40.0201 6.76782C40.033 6.74426 40.0453 6.74402 40.076 6.74272C40.0956 6.83112 40.0967 6.92059 40.0726 7.02152C40.0451 7.01582 40.0427 6.99867 40.035 6.9561C40.0264 6.88417 40.023 6.83766 40.0201 6.76782Z" fill="white" fill-opacity="0.9"/>
<path d="M49.7912 17.1193C49.6196 17.2623 49.4617 17.3822 49.2513 17.542C49.2375 16.9947 49.2262 16.5452 49.215 16.0957C49.7954 16.1995 50.0002 16.5471 49.7912 17.1193Z" fill="white" fill-opacity="0.9"/>
<path d="M47.778 13.9107C47.8922 13.7467 48.0003 13.608 48.1084 13.4694C48.13 13.4853 48.1516 13.5012 48.1731 13.5171C48.1829 13.9054 48.1927 14.2937 48.2027 14.6896C47.8122 14.5309 47.7217 14.3673 47.778 13.9107Z" fill="white" fill-opacity="0.9"/>
</svg>
